<?xml version="1.0" standalone="no"?>
<!DOCTYPE svg PUBLIC "-//W3C//DTD SVG 20010904//EN"
 "http://www.w3.org/TR/2001/REC-SVG-20010904/DTD/svg10.dtd">
<svg version="1.0" xmlns="http://www.w3.org/2000/svg"
 width="512.000000pt" height="512.000000pt" viewBox="0 0 512.000000 512.000000"
 preserveAspectRatio="xMidYMid meet">

<g transform="translate(0.000000,512.000000) scale(0.100000,-0.100000)"
fill="#000000" stroke="none">
<path d="M1280 3740 l0 -320 -430 0 -430 0 0 -220 0 -220 430 0 430 0 0 -320
0 -321 813 3 c805 4 813 4 891 26 278 78 502 283 591 540 18 49 29 68 44 70
38 6 191 -38 268 -77 192 -97 335 -274 390 -481 24 -88 24 -272 0 -360 -70
-265 -286 -477 -550 -540 -80 -19 -124 -20 -1694 -20 l-1613 0 0 -220 0 -220
1598 0 c1103 0 1625 3 1687 11 251 31 485 142 668 318 183 176 305 403 348
651 17 96 17 304 0 400 -79 450 -419 823 -856 938 -63 17 -218 42 -256 42 -4
0 -15 24 -25 53 -55 170 -179 334 -329 437 -66 46 -179 97 -270 122 -79 22
-86 23 -892 26 l-813 3 0 -321z"/>
</g>
</svg>
